
<svg width="181px" height="27px" viewBox="458 294 181 27" version="1.1" xmlns="http://www.w3.org/2000/svg" xmlns:xlink="http://www.w3.org/1999/xlink">
    <g id="logo-nofrills" stroke="none" stroke-width="1" fill="none" fill-rule="evenodd" transform="translate(458.000000, 294.000000)">
        <path d="M62.3997931,8.26371882 L62.6156147,10.1680273 C63.1065056,9.48247281 63.7031829,8.95138765 64.4056647,8.57475587 C65.1081464,8.19812409 65.8867892,8.00981103 66.7416164,8.00981103 C67.4356345,8.00981103 68.0703976,8.11137313 68.6459249,8.31450038 C69.2214521,8.51762763 69.7186832,8.84135683 70.1376331,9.28569769 C70.5565831,9.73003856 70.8824282,10.3013254 71.1151782,10.9995753 C71.3479281,11.6978252 71.4643014,12.546292 71.4643014,13.5450009 L71.4643014,22.0001305 L67.934983,22.0001305 L67.934983,13.5957825 C67.934983,13.0541098 67.8736226,12.6076598 67.7508999,12.2564189 C67.6281772,11.905178 67.4525594,11.6279981 67.2240412,11.4248709 C66.9955231,11.2217436 66.720459,11.0799798 66.3988409,10.9995753 C66.0772227,10.9191708 65.7132919,10.8789691 65.3070374,10.8789691 C64.7061192,10.8789691 64.194077,10.9995741 63.7708952,11.2407877 C63.3477134,11.4820013 63.0049413,11.814194 62.7425686,12.2373758 L62.7425686,22.0001305 L59.2005549,22.0001305 L59.2005549,8.26371882 L62.3997931,8.26371882 Z M74.3207641,15.0049708 C74.3207641,14.0062618 74.4646437,13.0816235 74.7524073,12.2310281 C75.0401709,11.3804327 75.4612305,10.6419916 76.0155986,10.0156826 C76.5699667,9.38937358 77.2470474,8.89849009 78.0468609,8.5430174 C78.8466745,8.18754471 79.7628493,8.00981103 80.7954128,8.00981103 C81.8279763,8.00981103 82.746267,8.18754471 83.5503124,8.5430174 C84.3543578,8.89849009 85.0335543,9.38937358 85.5879224,10.0156826 C86.1422906,10.6419916 86.5633501,11.3804327 86.8511137,12.2310281 C87.1388773,13.0816235 87.282757,14.0062618 87.282757,15.0049708 L87.282757,15.2715739 C87.282757,16.2787466 87.1388773,17.2076166 86.8511137,18.058212 C86.5633501,18.9088074 86.1444064,19.6472485 85.5942701,20.2735575 C85.0441338,20.8998665 84.3670531,21.3886341 83.5630078,21.739875 C82.7589624,22.0911159 81.8449035,22.2667337 80.8208036,22.2667337 C79.7882401,22.2667337 78.8678335,22.0911159 78.0595563,21.739875 C77.2512791,21.3886341 76.5699667,20.8998665 76.0155986,20.2735575 C75.4612305,19.6472485 75.0401709,18.9088074 74.7524073,18.058212 C74.4646437,17.2076166 74.3207641,16.2787466 74.3207641,15.2715739 L74.3207641,15.0049708 Z M77.8500824,15.2715739 C77.8500824,15.8471012 77.9050952,16.3866498 78.0151225,16.8902361 C78.1251497,17.3938224 78.2986517,17.8339249 78.5356334,18.2105567 C78.7726152,18.5871884 79.0794174,18.8855271 79.4560492,19.1055816 C79.832681,19.3256362 80.2875946,19.4356618 80.8208036,19.4356618 C81.3370854,19.4356618 81.7814196,19.3256362 82.1538195,19.1055816 C82.5262195,18.8855271 82.8287899,18.5871884 83.0615399,18.2105567 C83.2942899,17.8339249 83.4656759,17.3938224 83.5757032,16.8902361 C83.6857304,16.3866498 83.7407432,15.8471012 83.7407432,15.2715739 L83.7407432,15.0049708 C83.7407432,14.4463708 83.6857304,13.9174015 83.5757032,13.418047 C83.4656759,12.9186926 83.2942899,12.4785901 83.0615399,12.0977265 C82.8287899,11.7168629 82.5262195,11.4164084 82.1538195,11.1963538 C81.7814196,10.9762993 81.3286219,10.8662737 80.7954128,10.8662737 C80.2706674,10.8662737 79.8221015,10.9762993 79.4497015,11.1963538 C79.0773015,11.4164084 78.7726152,11.7168629 78.5356334,12.0977265 C78.2986517,12.4785901 78.1251497,12.9186926 78.0151225,13.418047 C77.9050952,13.9174015 77.8500824,14.4463708 77.8500824,15.0049708 L77.8500824,15.2715739 Z M93.8208827,22.0001305 L93.8208827,10.8662737 L90.215392,10.8662737 L90.215392,8.26371882 L93.8208827,8.26371882 L93.8208827,7.51469083 C93.8208827,6.60908183 93.9647623,5.80928028 94.2525259,5.11526217 C94.5402895,4.42124406 94.9507697,3.83726198 95.4839787,3.36329839 C96.0171878,2.88933481 96.6646462,2.53175157 97.4263733,2.29053796 C98.1881005,2.04932435 99.0386831,1.92871935 99.9781467,1.92871935 C100.274374,1.92871935 100.560017,1.93929874 100.835085,1.96045783 C101.110154,1.98161692 101.37887,2.00912332 101.641243,2.04297786 C101.903615,2.0768324 102.1681,2.11491819 102.434705,2.15723637 C102.701309,2.19955455 102.978489,2.24610384 103.266253,2.29688566 L103.037736,5.06448061 C102.716117,4.99677153 102.352187,4.93752697 101.945932,4.88674516 C101.539678,4.83596335 101.061489,4.81057282 100.511353,4.81057282 C99.4110804,4.81057282 98.6112789,5.0433193 98.1119244,5.50881925 C97.6125699,5.9743192 97.3628964,6.64293638 97.3628964,7.51469083 L97.3628964,8.26371882 L102.314098,8.26371882 L102.314098,10.8662737 L97.3628964,10.8662737 L97.3628964,22.0001305 L93.8208827,22.0001305 Z M115.872775,8.00981103 C116.405984,8.00981103 116.898983,8.04578094 117.351788,8.11772184 C117.804592,8.18966274 118.170639,8.2679502 118.449939,8.35258655 L117.929428,11.8692095 C117.463928,11.7591822 116.987855,11.676663 116.501196,11.6216494 C116.014537,11.5666358 115.55116,11.5391294 115.111051,11.5391294 C114.120806,11.5391294 113.327352,11.7295583 112.730666,12.1104219 C112.133979,12.4912855 111.687529,13.0371818 111.391302,13.7481272 L111.391302,22.0001305 L107.861984,22.0001305 L107.861984,8.26371882 L111.15009,8.26371882 L111.31513,10.5108028 C111.87373,9.73214834 112.542347,9.12065985 113.321001,8.67631899 C114.099656,8.23197813 114.950238,8.00981103 115.872775,8.00981103 Z M122.55055,8.26371882 L130.028134,8.26371882 L130.028134,19.1309724 L133.747883,19.1309724 L133.747883,22.0001305 L122.55055,22.0001305 L122.55055,19.1309724 L126.46073,19.1309724 L126.46073,11.1455723 L122.55055,11.1455723 L122.55055,8.26371882 Z M126.206822,4.74709587 C126.206822,4.47625954 126.255487,4.22447016 126.352819,3.99172018 C126.450151,3.75897021 126.587683,3.56007776 126.765419,3.39503687 C126.943155,3.22999597 127.156859,3.10092747 127.406536,3.00782748 C127.656213,2.91472749 127.933393,2.86817819 128.238084,2.86817819 C128.864393,2.86817819 129.361624,3.04379599 129.729792,3.39503687 C130.097961,3.74627774 130.282042,4.19695957 130.282042,4.74709587 C130.282042,5.29723218 130.097961,5.747914 129.729792,6.09915488 C129.361624,6.45039575 128.864393,6.62601355 128.238084,6.62601355 C127.933393,6.62601355 127.656213,6.57946425 127.406536,6.48636426 C127.156859,6.39326427 126.943155,6.26419577 126.765419,6.09915488 C126.587683,5.93411398 126.450151,5.73522153 126.352819,5.50247156 C126.255487,5.26972158 126.206822,5.01793221 126.206822,4.74709587 Z M137.950057,2.50001189 L145.630768,2.50001189 L145.630768,19.1309724 L149.566339,19.1309724 L149.566339,22.0001305 L137.950057,22.0001305 L137.950057,19.1309724 L142.063364,19.1309724 L142.063364,5.38186536 L137.950057,5.38186536 L137.950057,2.50001189 Z M153.552691,2.50001189 L161.233402,2.50001189 L161.233402,19.1309724 L165.168973,19.1309724 L165.168973,22.0001305 L153.552691,22.0001305 L153.552691,19.1309724 L157.665998,19.1309724 L157.665998,5.38186536 L153.552691,5.38186536 L153.552691,2.50001189 Z M177.280375,18.2295997 C177.280375,18.0180089 177.231709,17.8318117 177.134378,17.6710026 C177.037046,17.5101935 176.863544,17.3599663 176.613867,17.2203163 C176.364189,17.0806663 176.031997,16.9515978 175.617279,16.8331069 C175.20256,16.714616 174.677823,16.5961269 174.04305,16.477636 C173.239005,16.3168269 172.504796,16.1158186 171.8404,15.874605 C171.176005,15.6333913 170.606834,15.3414003 170.13287,14.9986231 C169.658907,14.6558458 169.288628,14.2601768 169.022024,13.8116041 C168.755419,13.3630314 168.622119,12.8467574 168.622119,12.2627666 C168.622119,11.695703 168.757535,11.1540385 169.028371,10.6377567 C169.299208,10.1214749 169.688529,9.66867723 170.196347,9.27935 C170.704165,8.89002277 171.322001,8.58110471 172.049874,8.35258655 C172.777747,8.12406839 173.598707,8.00981103 174.51278,8.00981103 C175.469171,8.00981103 176.328217,8.12195252 177.089944,8.34623886 C177.851671,8.5705252 178.497014,8.87944326 179.025991,9.2730023 C179.554968,9.66656135 179.9591,10.1341702 180.2384,10.6758429 C180.5177,11.2175155 180.657348,11.8057294 180.657348,12.440502 L177.12803,12.440502 C177.12803,11.907293 176.912211,11.4608429 176.480565,11.1011384 C176.04892,10.7414339 175.392998,10.5615844 174.51278,10.5615844 C173.691807,10.5615844 173.071855,10.7096958 172.652905,11.005923 C172.233955,11.3021502 172.024483,11.6660811 172.024483,12.0977265 C172.024483,12.3008538 172.066801,12.4891668 172.151437,12.6626714 C172.236074,12.8361759 172.386301,12.9927508 172.602124,13.1324008 C172.817946,13.2720508 173.112053,13.3990034 173.484453,13.5132625 C173.856853,13.6275215 174.33081,13.7269678 174.906337,13.8116041 C175.735773,13.9470223 176.505952,14.1205242 177.216898,14.3321151 C177.927843,14.543706 178.541447,14.8166541 179.057729,15.1509677 C179.574011,15.4852813 179.978144,15.8915298 180.270139,16.3697252 C180.562134,16.8479206 180.70813,17.4170915 180.70813,18.0772551 C180.70813,18.6866368 180.562134,19.2473443 180.270139,19.7593942 C179.978144,20.2714442 179.563432,20.7136625 179.025991,21.0860624 C178.48855,21.4584624 177.838976,21.7483376 177.077248,21.9556966 C176.315521,22.1630557 175.464939,22.2667337 174.525475,22.2667337 C173.492912,22.2667337 172.580969,22.1313175 171.789619,21.8604812 C170.998269,21.5896449 170.335999,21.2362934 169.80279,20.8004162 C169.269581,20.3645389 168.865449,19.8694237 168.59038,19.3150556 C168.315312,18.7606874 168.17778,18.2042118 168.17778,17.6456118 L171.542059,17.6456118 C171.567449,18.0180118 171.669012,18.3375092 171.846748,18.6041137 C172.024484,18.8707183 172.252999,19.0865377 172.532299,19.2515786 C172.811599,19.4166195 173.131096,19.5372245 173.490801,19.6133972 C173.850505,19.6895699 174.220784,19.7276557 174.601647,19.7276557 C175.473402,19.7276557 176.137787,19.5880078 176.594824,19.3087079 C177.05186,19.0294079 177.280375,18.6697088 177.280375,18.2295997 Z" id="[-]-nofrills" fill="#0C9AF3"></path>
        <polygon id="Path" fill="#CDCDCD" points="31.2833929 0.544921875 36.9709275 0.544921875 36.9709275 26.2530861 31.2833929 26.2530861 31.2833929 23.5235773 33.4543046 23.5235773 33.4543046 3.27443066 31.2833929 3.27443066"></polygon>
        <polygon id="Path" fill="#CDCDCD" points="5.7529642 3.27443066 3.59474795 3.27443066 3.59474795 23.5235773 5.7529642 23.5235773 5.7529642 26.2530861 0.078125 26.2530861 0.078125 0.544921875 5.7529642 0.544921875"></polygon>
    </g>
</svg>